<svg width="41" height="52" viewBox="0 0 41 52" fill="none" xmlns="http://www.w3.org/2000/svg">
<path d="M33.3398 18.3386H13.2422V13.2285C13.2422 11.1844 13.9958 9.39588 15.5031 7.86283C18.5178 4.79675 23.291 4.79675 26.0544 7.86283C27.0593 8.88486 27.5617 10.1624 28.0642 11.4399C28.3154 12.7175 29.8227 13.484 31.0788 13.2285C32.3349 12.973 33.3398 11.4399 32.8373 10.1624C32.3349 7.86284 31.0788 5.81878 29.5715 4.28573C27.3105 1.73066 24.0446 0.453125 20.7788 0.453125C13.7446 0.453125 8.21776 6.07428 8.21776 13.2285V18.3386C3.94701 18.3386 0.681152 21.6602 0.681152 26.0038V43.8894C0.681152 48.233 3.94701 51.5546 8.21776 51.5546H33.3398C37.6105 51.5546 40.8764 48.233 40.8764 43.8894V26.0038C40.8764 21.6602 37.6105 18.3386 33.3398 18.3386Z" fill="#135D54"/>
</svg>
