<svg width="21" height="26" viewBox="0 0 21 26" fill="none" xmlns="http://www.w3.org/2000/svg">
<path d="M4.64288 14.8538H12.0715V16.7109H4.64288V14.8538ZM4.64288 10.2109H15.7857V12.0681H4.64288V10.2109ZM4.64288 19.4967H9.28574V21.3538H4.64288V19.4967Z" fill="#00C796"/>
<path d="M18.5714 2.78571H15.7857V1.85714C15.7857 1.3646 15.5901 0.892226 15.2418 0.543944C14.8935 0.195663 14.4211 0 13.9286 0H6.5C6.00746 0 5.53508 0.195663 5.1868 0.543944C4.83852 0.892226 4.64286 1.3646 4.64286 1.85714V2.78571H1.85714C1.3646 2.78571 0.892226 2.98138 0.543944 3.32966C0.195663 3.67794 0 4.15031 0 4.64286V24.1429C0 24.6354 0.195663 25.1078 0.543944 25.4561C0.892226 25.8043 1.3646 26 1.85714 26H18.5714C19.064 26 19.5363 25.8043 19.8846 25.4561C20.2329 25.1078 20.4286 24.6354 20.4286 24.1429V4.64286C20.4286 4.15031 20.2329 3.67794 19.8846 3.32966C19.5363 2.98138 19.064 2.78571 18.5714 2.78571ZM6.5 1.85714H13.9286V5.57143H6.5V1.85714ZM18.5714 24.1429H1.85714V4.64286H4.64286V7.42857H15.7857V4.64286H18.5714V24.1429Z" fill="#00C796"/>
</svg>
