<svg width="27" height="23" viewBox="0 0 27 23" fill="none" xmlns="http://www.w3.org/2000/svg">
<path d="M13.5 21H2.875C2.37772 21 1.90081 20.8025 1.54917 20.4508C1.19754 20.0992 1 19.6223 1 19.125V2.875C1 2.37772 1.19754 1.90081 1.54917 1.54917C1.90081 1.19754 2.37772 1 2.875 1H24.125C24.6223 1 25.0992 1.19754 25.4508 1.54917C25.8025 1.90081 26 2.37772 26 2.875V10.4119" stroke="#00C796" stroke-width="1.875" stroke-linecap="round" stroke-linejoin="round"/>
<path d="M1 2.875C1 2.37772 1.19754 1.90081 1.54917 1.54917C1.90081 1.19754 2.37772 1 2.875 1H24.125C24.6223 1 25.0992 1.19754 25.4508 1.54917C25.8025 1.90081 26 2.37772 26 2.875V8.5H1V2.875Z" stroke="#00C796" stroke-width="1.875"/>
<path d="M3.49982 4.75C3.49982 4.05964 4.05946 3.5 4.74982 3.5C5.44017 3.5 5.99982 4.05964 5.99982 4.75C5.99982 5.44036 5.44017 6 4.74982 6C4.05946 6 3.49982 5.44036 3.49982 4.75Z" fill="#00C796"/>
<path d="M7.24976 4.75C7.24976 4.05964 7.8094 3.5 8.49976 3.5C9.19011 3.5 9.74976 4.05964 9.74976 4.75C9.74976 5.44036 9.19011 6 8.49976 6C7.8094 6 7.24976 5.44036 7.24976 4.75Z" fill="#00C796"/>
<path d="M21.6249 19.125C22.6604 19.125 23.4999 18.2855 23.4999 17.25C23.4999 16.2145 22.6604 15.375 21.6249 15.375C20.5893 15.375 19.7499 16.2145 19.7499 17.25C19.7499 18.2855 20.5893 19.125 21.6249 19.125Z" stroke="#00C796" stroke-width="1.875"/>
<path d="M21.6251 21.625V19.125M21.6251 15.375V12.875M17.8363 19.4375L20.0013 18.1875M23.2488 16.3125L25.4138 15.0625M17.8363 15.0625L20.0013 16.3125M23.2488 18.1875L25.4138 19.4375" stroke="#00C796" stroke-width="1.875" stroke-linecap="round" stroke-linejoin="round"/>
</svg>
